<?xml version="1.0" standalone="no"?>
<!DOCTYPE svg PUBLIC "-//W3C//DTD SVG 20010904//EN"
 "http://www.w3.org/TR/2001/REC-SVG-20010904/DTD/svg10.dtd">
<svg version="1.0" xmlns="http://www.w3.org/2000/svg"
 width="3263.000000pt" height="3264.000000pt" viewBox="0 0 3263.000000 3264.000000"
 preserveAspectRatio="xMidYMid meet">
<metadata>
Created by potrace 1.16, written by Peter Selinger 2001-2019
</metadata>
<g transform="translate(0.000000,3264.000000) scale(0.100000,-0.100000)"
fill="#000000" stroke="none">
<path d="M0 24992 c0 -4518 4 -7652 9 -7657 29 -31 102 -235 135 -375 46 -193
77 -580 55 -665 -5 -16 -23 -84 -40 -150 -34 -128 -56 -184 -119 -306 l-40
-77 0 -7881 0 -7881 16315 0 16315 0 0 1782 0 1781 -21 -19 c-33 -30 -96 -142
-135 -240 -19 -49 -41 -102 -49 -119 l-14 -30 0 41 c-2 114 82 322 167 415
l52 57 0 1673 -1 1674 -34 -38 c-41 -47 -104 -166 -139 -266 -37 -104 -45
-115 -46 -65 -1 118 82 321 169 416 l51 56 0 1675 c0 1480 -2 1676 -15 1681
-8 3 -15 12 -15 20 0 8 7 21 15 30 13 13 15 212 15 1674 l0 1659 -47 7 c-74
10 -100 46 -71 99 13 25 26 37 81 73 l37 24 0 713 0 713 -72 50 c-40 27 -106
85 -148 128 -41 44 -90 93 -108 110 -41 38 -66 93 -97 211 -48 185 -58 278
-59 505 -1 415 74 721 233 955 50 74 141 166 204 207 l47 31 0 703 c0 615 -2
703 -15 708 -8 3 -15 12 -15 20 0 7 -6 16 -14 19 -38 15 -92 125 -110 225 -5
29 -3 32 19 32 14 0 25 -4 25 -9 0 -10 95 -111 104 -111 3 0 6 343 6 763 l0
762 -21 -25 c-34 -42 -97 -180 -123 -271 -47 -166 -60 -291 -59 -569 0 -140 5
-288 10 -327 18 -141 -23 -61 -57 113 -28 138 -38 432 -21 585 32 275 97 447
222 583 l49 54 0 1663 -1 1664 -29 -35 c-68 -80 -128 -224 -175 -420 -31 -129
-45 -156 -45 -89 0 217 85 473 199 601 l51 56 0 1680 c0 1335 -3 1681 -13
1685 -9 4 -9 7 1 18 9 10 12 367 12 1712 l0 1700 -39 -49 c-46 -58 -96 -156
-142 -279 l-34 -90 -3 43 c-4 50 27 178 63 258 26 60 98 166 134 198 l21 19 0
684 0 683 -16315 0 -16315 0 0 -7648z m4018 6368 c92 -40 84 -45 -72 -45
l-142 0 -79 -39 c-151 -74 -257 -212 -336 -438 -44 -125 -54 -68 -15 86 59
231 205 397 397 451 72 20 181 13 247 -15z m4470 0 c28 -12 57 -29 64 -37 11
-14 5 -15 -52 -8 -149 18 -252 0 -349 -62 -133 -83 -211 -195 -288 -408 -34
-95 -47 -105 -38 -30 32 280 193 497 418 560 70 20 179 13 245 -15z m2186 15
c59 -15 116 -43 116 -56 0 -4 -53 -5 -119 -2 -144 7 -200 -8 -309 -80 -117
-78 -192 -192 -268 -402 l-29 -80 -3 43 c-4 61 31 191 79 290 106 220 330 340
533 287z m4506 -10 c50 -18 87 -42 77 -51 -3 -3 -39 -2 -79 4 -142 18 -256
-13 -373 -100 -90 -69 -158 -170 -222 -331 -44 -113 -48 -119 -51 -84 -5 56
32 191 78 285 72 144 214 263 352 292 57 12 162 5 218 -15z m2248 -5 c92 -40
84 -45 -72 -45 l-142 0 -76 -38 c-148 -73 -232 -176 -318 -389 -26 -66 -51
-122 -55 -126 -4 -4 -5 18 -1 48 36 289 193 502 417 565 72 20 181 13 247 -15z
m2223 5 c26 -9 55 -25 65 -37 l19 -20 -65 7 c-151 19 -254 -2 -359 -71 -110
-73 -174 -159 -245 -329 -20 -49 -43 -103 -51 -120 l-14 -30 0 41 c-1 60 35
189 80 281 69 144 213 264 351 293 57 12 162 5 219 -15z m2247 -5 c28 -12 57
-29 64 -37 11 -14 5 -15 -52 -8 -152 18 -241 2 -345 -60 -122 -73 -196 -172
-271 -357 -54 -136 -68 -154 -59 -78 34 279 194 492 418 555 70 20 179 13 245
-15z m4480 -7 c71 -35 80 -55 20 -41 -24 5 -88 8 -144 6 -93 -3 -107 -6 -179
-42 -149 -74 -252 -208 -330 -428 -25 -71 -45 -99 -45 -64 0 40 32 172 58 239
40 102 81 165 154 232 141 130 325 169 466 98z m2164 26 c53 -11 128 -46 128
-60 0 -4 -53 -5 -118 -2 -104 5 -127 3 -183 -16 -178 -59 -291 -192 -390 -456
-31 -83 -34 -87 -37 -55 -9 91 52 269 128 377 117 167 298 248 472 212z
m-26814 -56 c18 -25 15 -39 -16 -74 -28 -31 -32 -32 -141 -40 -62 -5 -137 -13
-167 -18 -52 -10 -84 -7 -84 8 0 40 171 117 320 144 37 7 73 -2 88 -20z m4470
0 c18 -25 15 -39 -16 -74 -26 -30 -31 -31 -142 -40 -63 -5 -139 -13 -168 -19
-52 -9 -82 -6 -82 10 0 47 281 158 365 145 17 -3 36 -13 43 -22z m6690 11 c29
-20 28 -56 -1 -90 -22 -26 -31 -28 -138 -35 -63 -5 -139 -13 -169 -18 -60 -10
-80 -6 -80 15 0 32 149 101 275 129 79 18 87 18 113 -1z m11180 0 c50 -35 7
-109 -69 -117 -240 -28 -316 -34 -325 -24 -28 28 102 97 261 138 88 22 105 23
133 3z m6700 0 c29 -20 28 -56 -1 -90 -22 -25 -31 -28 -136 -35 -62 -5 -137
-13 -167 -18 -59 -11 -84 -7 -84 15 0 32 149 101 275 129 79 18 87 18 113 -1z
m-26464 -1641 c-3 -16 -21 -60 -40 -100 -40 -83 -87 -129 -183 -176 -53 -26
-76 -31 -135 -31 -63 -1 -127 17 -113 30 3 3 47 16 99 29 52 12 115 33 138 45
56 29 151 118 191 181 35 55 52 63 43 22z m4461 -29 c-46 -152 -174 -262 -325
-279 -57 -7 -136 11 -133 30 1 6 38 18 83 27 150 32 224 80 332 215 28 35 52
62 54 60 2 -2 -3 -26 -11 -53z m2234 -1 c-50 -155 -170 -258 -326 -278 -51 -7
-129 12 -126 30 1 5 42 19 91 30 146 35 228 88 316 208 52 72 67 75 45 10z
m4476 20 c-18 -95 -99 -202 -195 -256 -84 -47 -192 -58 -252 -26 -29 16 -13
24 77 44 145 31 231 88 321 210 27 36 50 65 52 65 2 0 1 -17 -3 -37z m4472 3
c-23 -142 -177 -285 -327 -301 -57 -7 -136 11 -133 30 1 5 42 19 90 30 152 36
231 88 319 211 25 35 48 64 51 64 3 0 3 -15 0 -34z m2243 24 c0 -22 -45 -128
-71 -166 -39 -57 -82 -92 -159 -128 -53 -24 -78 -30 -135 -30 -62 -1 -126 17
-112 30 3 3 48 16 101 29 53 13 119 36 147 51 52 29 162 138 195 193 18 30 34
40 34 21z m4470 2 c0 -5 -9 -34 -19 -65 -23 -66 -67 -134 -113 -172 -48 -41
-143 -83 -202 -90 -58 -8 -139 10 -134 27 2 6 45 22 96 34 50 12 114 35 142
50 53 29 163 138 196 193 17 30 34 41 34 23z m2219 -60 c-29 -89 -113 -188
-195 -230 -84 -42 -190 -51 -246 -21 -29 16 -13 24 77 44 148 32 234 88 323
213 49 70 65 68 41 -6z m-11159 53 c0 -18 -48 -128 -71 -161 -78 -114 -256
-189 -364 -152 -22 7 -39 17 -38 23 1 5 39 17 83 27 45 9 106 28 136 42 60 28
146 104 201 178 30 41 53 60 53 43z m-15952 -1789 c24 -9 55 -24 68 -35 l25
-20 -124 6 c-110 5 -130 3 -189 -16 -179 -60 -301 -203 -393 -463 -15 -43 -32
-78 -37 -78 -27 0 35 239 90 345 69 131 215 248 342 275 59 12 164 5 218 -14z
m4473 -1 c26 -9 57 -27 70 -41 l23 -24 -35 7 c-19 5 -83 8 -144 8 -131 0 -184
-18 -285 -94 -105 -79 -174 -187 -246 -386 l-29 -80 -3 49 c-4 63 37 207 86
300 68 130 201 238 335 272 62 16 165 11 228 -11z m4455 5 c23 -7 54 -22 69
-34 l26 -21 -143 0 c-141 0 -144 0 -208 -32 -154 -77 -238 -179 -326 -397 -51
-126 -53 -129 -54 -85 0 67 34 191 80 286 109 225 347 346 556 283z m2196 9
c53 -11 122 -41 132 -57 2 -4 -59 -8 -138 -7 l-142 0 -76 -38 c-148 -73 -241
-186 -317 -387 -53 -140 -66 -157 -57 -75 31 278 197 500 419 560 65 17 111
18 179 4z m4538 -20 c90 -39 81 -44 -74 -44 l-142 0 -76 -38 c-158 -78 -250
-197 -335 -432 -34 -95 -47 -105 -39 -30 32 278 195 497 419 560 68 20 182 12
247 -16z m4471 0 c89 -39 80 -44 -75 -44 l-142 0 -76 -38 c-148 -73 -238 -184
-320 -394 -23 -62 -46 -113 -51 -113 -13 0 5 111 30 195 37 118 79 191 159
272 74 76 157 124 245 143 63 13 173 3 230 -21z m4468 1 c93 -40 84 -46 -72
-45 l-143 0 -78 -39 c-150 -74 -253 -208 -331 -429 -44 -123 -57 -112 -31 25
31 163 106 303 211 396 56 49 150 98 215 112 67 14 171 4 229 -20z m4470 0
c91 -40 83 -45 -73 -45 l-142 0 -79 -39 c-147 -72 -236 -185 -321 -407 -45
-119 -58 -133 -49 -54 11 86 51 220 88 290 67 127 221 248 347 275 67 14 171
4 229 -20z m-26891 -26 c28 -20 28 -56 -1 -89 -21 -25 -31 -27 -137 -36 -63
-5 -139 -13 -168 -19 -82 -15 -108 8 -56 49 47 37 252 106 324 110 9 1 26 -6
38 -15z m4470 0 c29 -20 29 -64 -2 -93 -19 -18 -41 -23 -137 -31 -63 -5 -138
-14 -166 -19 -83 -16 -109 7 -57 48 47 37 252 106 324 110 9 1 26 -6 38 -15z
m6710 0 c30 -20 28 -47 -6 -85 -26 -30 -31 -31 -142 -40 -63 -5 -138 -14 -166
-19 -48 -10 -84 -6 -84 9 0 12 43 47 79 66 49 25 107 45 186 66 88 22 105 23
133 3z m4479 -5 c21 -18 16 -46 -14 -79 -27 -30 -33 -31 -143 -40 -63 -5 -139
-14 -167 -19 -51 -10 -83 -7 -83 8 0 22 72 68 154 98 126 47 220 59 253 32z
m4461 5 c50 -35 5 -109 -71 -118 -23 -2 -89 -9 -147 -15 -58 -6 -116 -14 -130
-16 -14 -3 -32 -1 -40 4 -12 8 -11 13 5 31 35 38 126 79 250 111 88 22 105 23
133 3z m4472 -2 c46 -37 2 -107 -72 -115 -24 -3 -90 -10 -148 -16 -58 -6 -116
-14 -130 -16 -14 -3 -32 -1 -40 4 -42 28 115 111 285 150 61 14 81 13 105 -7z
m-26475 -1649 c-27 -145 -175 -281 -325 -299 -61 -7 -144 10 -138 28 3 7 41
20 85 29 144 31 235 90 323 209 28 38 54 70 57 70 3 0 2 -17 -2 -37z m4444
-73 c-39 -84 -113 -159 -196 -198 -73 -33 -201 -39 -229 -10 -20 20 -25 18 86
43 138 32 224 89 312 207 44 59 54 67 56 49 2 -11 -11 -53 -29 -91z m4496 73
c-19 -104 -116 -221 -223 -271 -72 -33 -200 -39 -228 -10 -20 20 -22 19 81 41
140 30 231 90 317 208 28 38 53 69 55 69 3 0 2 -17 -2 -37z m2230 -19 c-45
-150 -175 -263 -322 -280 -54 -7 -136 11 -131 28 2 6 45 21 94 34 50 12 110
32 134 44 53 27 128 97 187 173 25 32 47 56 49 54 2 -2 -3 -26 -11 -53z m4465
-15 c-38 -113 -103 -184 -213 -235 -31 -13 -77 -27 -104 -30 -54 -7 -136 11
-131 28 2 6 45 21 94 34 50 12 110 32 134 44 53 27 128 97 187 173 25 32 47
56 50 54 2 -3 -6 -33 -17 -68z m4475 9 c-21 -67 -66 -138 -113 -179 -48 -43
-148 -88 -208 -95 -55 -7 -137 11 -132 28 2 6 45 21 94 34 50 12 110 32 134
44 53 27 128 97 187 173 25 32 47 56 50 53 3 -3 -2 -29 -12 -58z m4470 0 c-22
-68 -67 -139 -113 -179 -48 -43 -148 -88 -208 -95 -55 -7 -137 11 -132 28 2 6
45 21 94 34 50 12 110 32 134 44 53 27 128 97 187 173 25 32 47 56 50 53 3 -2
-3 -29 -12 -58z m4480 30 c-13 -61 -67 -158 -112 -199 -54 -50 -154 -98 -219
-105 -55 -7 -137 11 -132 28 2 6 45 22 96 34 50 12 114 35 142 50 53 29 163
138 196 193 24 40 37 40 29 -1z m-10519 -1031 c633 -105 1134 -462 1389 -992
111 -230 157 -437 157 -715 1 -259 -39 -480 -118 -648 -20 -42 -199 -457 -399
-922 -834 -1942 -2216 -5160 -2533 -5895 -903 -2100 -1320 -3066 -2302 -5345
-584 -1356 -1089 -2526 -1122 -2600 -112 -253 -237 -438 -404 -600 -119 -115
-224 -190 -363 -260 -532 -266 -1329 -229 -1895 87 -409 230 -664 583 -733
1018 -33 210 -4 562 63 777 31 97 2590 5953 5178 11846 240 546 436 997 436
1003 0 5 -1097 9 -2937 9 -1900 0 -2970 4 -3028 10 -209 24 -387 75 -585 171
-453 219 -784 613 -900 1073 -164 651 107 1321 690 1708 253 168 550 266 865
288 61 4 1984 6 4275 6 3840 -2 4173 -3 4266 -19z m-18845 -737 c58 -18 141
-71 129 -83 -3 -3 -36 3 -75 13 -178 47 -329 5 -465 -130 -101 -99 -168 -245
-220 -476 -29 -130 -39 -146 -40 -64 0 151 47 350 112 472 116 218 354 332
559 268z m6736 -9 c52 -23 128 -89 88 -77 -145 42 -255 46 -345 10 -210 -82
-330 -263 -410 -616 -12 -54 -24 -98 -27 -98 -3 0 -3 51 0 113 17 351 184 611
437 684 66 19 194 11 257 -16z m17885 -4 c56 -27 106 -63 98 -70 -3 -3 -36 3
-75 13 -238 63 -461 -46 -583 -285 -34 -69 -86 -225 -107 -326 -27 -125 -39
-123 -32 6 17 302 139 536 337 640 89 46 129 55 227 51 61 -3 94 -10 135 -29z
m4470 0 c52 -25 105 -64 97 -71 -2 -2 -38 5 -79 16 -163 43 -323 2 -447 -114
-107 -101 -166 -219 -229 -462 -18 -70 -36 -131 -40 -135 -4 -3 -4 44 -1 104
21 353 183 608 436 681 72 21 198 12 263 -19z m-26894 -23 c30 -21 28 -57 -5
-94 -25 -27 -35 -30 -108 -35 -44 -3 -124 -11 -178 -17 -73 -8 -101 -8 -109 0
-31 31 110 109 267 148 69 17 107 17 133 -2z m2234 -1 c32 -28 19 -91 -23
-113 -11 -6 -77 -15 -147 -20 -70 -6 -148 -13 -174 -16 -40 -6 -49 -4 -55 11
-9 26 33 57 129 95 144 57 238 72 270 43z m17888 -3 c24 -24 25 -32 5 -70 -22
-43 -43 -50 -183 -60 -70 -6 -148 -13 -174 -16 -40 -6 -49 -4 -55 11 -9 26 33
57 129 95 151 59 245 73 278 40z m4470 0 c24 -24 25 -32 5 -70 -23 -44 -49
-53 -180 -61 -66 -4 -144 -11 -172 -15 -45 -6 -54 -4 -59 11 -10 26 32 57 128
95 151 59 245 73 278 40z m-26422 -1472 c-11 -83 -43 -188 -80 -263 -83 -166
-299 -266 -452 -208 -60 22 -69 40 -24 47 18 3 67 10 108 16 107 15 205 65
269 137 57 64 118 175 151 276 12 37 25 65 29 62 4 -2 4 -33 -1 -67z m6708 13
c-17 -154 -85 -309 -167 -386 -117 -110 -315 -149 -404 -80 -17 13 -18 16 -5
25 8 5 33 10 56 10 58 0 190 36 239 65 95 55 204 210 250 355 20 61 24 70 32
70 3 0 3 -27 -1 -59z m17880 0 c-18 -161 -81 -306 -167 -385 -103 -95 -236
-137 -344 -107 -46 12 -83 36 -73 46 3 4 42 11 85 16 254 32 363 134 483 457
18 48 23 39 16 -27z m4470 -3 c-8 -83 -51 -220 -87 -285 -38 -66 -123 -144
-197 -179 -49 -24 -70 -28 -147 -29 -68 0 -98 4 -122 18 -59 32 -50 37 87 55
41 5 100 19 130 31 129 49 240 185 301 371 24 72 28 80 36 80 3 0 3 -28 -1
-62z m-27141 -1952 c110 -50 195 -126 211 -190 7 -27 6 -27 -62 20 -126 86
-163 99 -289 99 -106 0 -113 -1 -179 -35 -217 -108 -325 -351 -356 -802 -9
-138 -2 -381 16 -525 9 -74 -10 -69 -34 10 -42 134 -56 252 -56 477 -1 227 8
309 49 468 70 266 218 438 428 497 76 22 203 13 272 -19z m2178 19 c81 -21
132 -49 193 -107 47 -44 92 -113 82 -123 -2 -3 -29 13 -58 34 -30 22 -84 54
-120 72 -62 33 -70 34 -175 34 -105 0 -114 -2 -180 -34 -92 -45 -190 -142
-232 -231 -114 -240 -157 -611 -120 -1027 7 -73 10 -133 6 -133 -21 0 -62 168
-80 320 -17 149 -6 486 19 610 43 207 103 331 212 440 137 138 292 187 453
145z m2305 -25 c80 -37 145 -89 178 -141 42 -67 30 -73 -43 -22 -125 85 -163
98 -288 98 -105 0 -113 -1 -179 -34 -241 -122 -356 -430 -357 -961 -1 -118 4
-255 10 -305 13 -109 13 -105 2 -105 -27 0 -65 177 -82 375 -23 293 22 629
110 803 82 163 216 279 366 319 83 21 205 10 283 -27z m2165 25 c80 -21 125
-46 190 -104 50 -46 96 -116 84 -127 -3 -3 -29 13 -58 35 -30 22 -83 55 -119
73 -62 31 -71 33 -175 33 -102 0 -115 -2 -175 -31 -36 -17 -94 -57 -128 -89
-103 -96 -180 -278 -217 -517 -23 -147 -29 -472 -13 -641 8 -76 11 -140 7
-143 -9 -5 -46 112 -65 206 -21 103 -30 447 -15 580 17 154 56 302 107 409 75
154 213 277 355 315 71 19 151 20 222 1z m4470 0 c83 -21 133 -50 198 -112 51
-49 91 -113 70 -113 -4 0 -44 24 -89 53 -109 72 -169 91 -282 85 -74 -3 -98
-9 -154 -37 -37 -18 -93 -57 -126 -88 -101 -93 -180 -282 -217 -518 -17 -113
-23 -463 -10 -665 7 -111 6 -122 -6 -100 -22 37 -55 182 -68 293 -15 132 -6
484 15 599 39 208 104 347 216 459 135 136 292 186 453 144z m6712 0 c62 -17
104 -39 169 -89 47 -36 96 -102 96 -128 0 -16 -10 -12 -64 26 -35 25 -90 58
-122 73 -54 26 -68 28 -180 28 l-122 -1 9 24 c14 37 31 66 43 74 19 13 109 9
171 -7z m4470 0 c62 -17 104 -39 169 -89 47 -36 96 -102 96 -128 0 -16 -10
-12 -64 26 -35 25 -90 58 -122 73 -53 25 -70 28 -165 28 -101 0 -108 -1 -181
-38 -183 -90 -287 -276 -340 -607 -15 -97 -18 -557 -5 -682 6 -49 5 -78 -1
-78 -28 0 -69 188 -84 383 -20 266 14 557 87 740 113 280 366 435 610 372z
m4455 4 c56 -13 131 -50 183 -91 48 -38 97 -104 97 -130 0 -16 -10 -12 -64 26
-35 25 -90 58 -122 73 -53 25 -70 28 -169 28 -109 0 -111 -1 -183 -39 -176
-94 -275 -266 -327 -571 -31 -179 -35 -540 -10 -737 10 -79 -9 -76 -34 5 -85
276 -73 775 25 1035 109 290 360 457 604 401z m-29048 -59 c22 -27 23 -61 3
-100 -26 -50 -44 -54 -253 -55 -165 -2 -195 0 -200 13 -14 38 119 110 288 156
74 20 139 15 162 -14z m11156 14 c51 -36 49 -100 -6 -146 -27 -22 -34 -23
-226 -23 -152 0 -200 3 -204 13 -12 36 129 112 281 152 89 23 126 24 155 4z
m11193 -10 c30 -27 25 -87 -9 -126 l-29 -31 -202 -2 c-164 -2 -204 1 -208 12
-16 40 103 105 282 154 79 21 137 19 166 -7z m4471 -4 c30 -37 17 -104 -27
-140 -25 -21 -414 -23 -422 -3 -16 41 135 120 312 162 59 15 117 6 137 -19z
m-6297 -530 c72 -317 56 -842 -32 -1085 -14 -38 -25 -80 -24 -92 0 -13 -3 -23
-8 -23 -5 0 -12 -11 -15 -25 -9 -35 -61 -109 -99 -140 -17 -15 -40 -33 -50
-41 -9 -8 -22 -14 -27 -14 -6 0 -10 -4 -10 -8 0 -5 -25 -21 -56 -36 -45 -22
-76 -29 -149 -33 -51 -3 -101 -2 -112 2 -10 5 -22 7 -27 6 -30 -7 -160 69
-232 136 -72 66 -142 192 -128 228 4 8 1 15 -5 15 -6 0 -11 11 -11 25 0 18 5
25 19 25 10 0 21 -7 25 -15 3 -8 12 -15 21 -15 8 0 15 -6 15 -14 0 -8 7 -16
15 -20 8 -3 15 -11 16 -18 0 -18 121 -118 173 -145 111 -57 298 -43 409 30 28
18 91 77 83 77 -3 0 6 11 18 25 37 40 93 162 115 250 34 139 43 223 48 500 4
212 2 300 -11 410 -9 77 -19 151 -21 165 -16 75 41 -82 60 -170z m8931 50 c62
-236 71 -707 17 -970 -8 -41 -19 -95 -24 -120 -5 -24 -13 -48 -18 -53 -5 -5
-7 -16 -4 -23 3 -8 0 -14 -6 -14 -7 0 -9 -9 -5 -25 3 -14 2 -25 -4 -25 -5 0
-13 -7 -16 -16 -4 -10 -2 -13 6 -8 7 4 3 -6 -8 -22 -22 -33 -37 -57 -62 -96
-9 -16 -21 -28 -25 -28 -5 0 -25 -16 -45 -37 -21 -20 -71 -52 -112 -72 -121
-58 -261 -55 -388 7 -100 49 -237 204 -260 295 -27 108 -6 126 61 50 185 -210
298 -252 521 -195 54 15 174 102 177 129 1 5 6 7 13 5 6 -2 8 0 3 4 -4 4 -1
14 7 23 56 65 113 224 137 386 21 137 18 709 -4 835 -9 52 -17 100 -16 105 1
17 40 -78 55 -135z m-26843 72 c57 -173 83 -411 74 -677 -8 -228 -32 -402 -73
-520 -7 -22 -15 -51 -17 -65 -1 -14 -10 -39 -19 -57 -11 -23 -13 -33 -4 -37 6
-2 3 -5 -7 -5 -10 -1 -15 -5 -12 -11 3 -5 1 -10 -4 -10 -6 0 -11 -6 -11 -12 0
-7 -12 -24 -25 -37 -14 -12 -22 -27 -19 -32 3 -5 1 -9 -5 -9 -5 0 -22 -11 -37
-25 -15 -14 -33 -25 -41 -25 -8 0 -12 -4 -9 -8 3 -5 -29 -26 -72 -48 -76 -39
-78 -39 -192 -39 -114 0 -117 1 -193 38 -81 40 -182 125 -207 174 -8 15 -17
30 -20 33 -15 14 -50 83 -50 100 0 10 -5 22 -10 25 -8 5 -8 11 -1 19 6 7 8 22
4 34 -4 18 -1 22 16 22 11 0 21 -4 21 -8 0 -11 30 -49 58 -75 12 -11 22 -27
22 -34 0 -7 6 -13 13 -13 6 0 28 -17 47 -36 77 -78 179 -116 287 -106 38 3 82
6 100 6 17 1 30 3 27 5 -5 5 36 26 68 34 41 11 150 137 191 219 45 94 83 264
98 443 13 159 7 575 -10 670 -21 114 -22 127 -13 121 5 -3 17 -27 25 -54z
m4476 -15 c81 -264 95 -751 30 -1039 -11 -51 -23 -106 -25 -122 -2 -16 -9 -35
-15 -42 -6 -8 -8 -14 -4 -14 4 0 2 -6 -4 -14 -7 -8 -11 -20 -10 -28 4 -22 -13
-68 -22 -62 -5 3 -6 -1 -3 -9 3 -8 0 -18 -5 -22 -6 -3 -18 -21 -25 -40 -8 -18
-24 -36 -35 -40 -12 -3 -21 -10 -21 -15 0 -17 -58 -69 -112 -99 -204 -115
-458 -60 -601 131 -22 29 -46 56 -52 60 -7 4 -16 20 -20 35 -3 15 -11 30 -16
33 -11 7 -21 140 -11 140 4 0 27 -23 52 -52 60 -70 127 -134 173 -169 133 -98
402 -74 509 46 54 61 72 86 100 140 56 108 89 237 109 424 13 125 7 621 -9
701 -29 141 -19 173 17 57z m6742 -157 c40 -216 44 -579 8 -815 -14 -99 -68
-303 -90 -345 -11 -19 -19 -40 -19 -47 0 -7 -4 -13 -10 -13 -5 0 -10 -6 -10
-14 0 -20 -97 -114 -155 -150 -73 -46 -119 -59 -220 -62 -111 -3 -179 14 -251
62 -89 59 -204 180 -204 214 0 6 -4 10 -10 10 -5 0 -10 11 -10 25 0 14 -4 25
-10 25 -5 0 -10 23 -10 50 0 28 4 50 9 50 5 0 42 -34 83 -75 93 -96 154 -142
221 -165 57 -20 201 -35 220 -23 7 4 17 8 22 10 16 3 78 25 105 37 46 21 139
124 173 193 71 143 100 274 118 538 13 190 6 433 -17 594 -7 58 -14 112 -13
120 1 37 53 -122 70 -219z m11125 193 c27 -64 61 -233 74 -367 23 -229 -3
-651 -49 -803 -5 -18 -7 -33 -4 -33 3 0 1 -6 -5 -13 -6 -7 -14 -33 -18 -57 -4
-25 -18 -61 -31 -80 -12 -19 -23 -45 -23 -58 0 -13 -4 -21 -8 -18 -12 7 -39
-27 -34 -42 2 -7 -1 -12 -6 -12 -6 0 -30 -18 -54 -39 -58 -53 -142 -103 -173
-103 -13 0 -22 -4 -19 -9 3 -5 -19 -9 -48 -10 -168 -3 -271 30 -367 120 -20
18 -43 38 -51 45 -24 18 -79 103 -86 134 -4 15 -11 30 -16 33 -4 3 -10 18 -12
35 -2 16 -7 37 -11 47 -5 12 -2 17 11 17 17 0 16 1 -2 15 -16 12 -17 14 -2 15
9 0 23 -6 30 -14 28 -30 48 -57 48 -65 0 -5 14 -19 30 -31 17 -12 30 -28 30
-36 0 -8 4 -14 10 -14 5 0 27 -16 49 -35 21 -19 44 -35 50 -35 6 0 11 -4 11
-10 0 -20 113 -44 199 -41 261 7 408 185 468 563 14 91 18 175 18 423 0 285
-7 387 -32 493 -8 35 5 26 23 -15z m-20067 -178 c24 -115 25 -134 25 -435 0
-336 -9 -431 -55 -570 -12 -36 -23 -78 -26 -94 -3 -16 -11 -40 -20 -52 -8 -13
-12 -28 -8 -33 3 -6 -3 -19 -15 -31 -11 -11 -17 -20 -14 -20 9 0 -24 -43 -72
-92 -26 -27 -52 -48 -59 -48 -7 0 -15 -6 -18 -13 -7 -19 -132 -64 -205 -75
-65 -9 -169 1 -187 19 -5 5 -15 9 -23 9 -23 0 -123 65 -169 109 -87 85 -152
209 -153 294 0 33 24 37 41 6 6 -12 31 -40 55 -63 24 -24 44 -48 44 -54 0 -6
9 -14 20 -17 11 -3 20 -10 20 -15 0 -4 21 -24 48 -43 155 -112 384 -91 528 49
57 56 120 169 147 264 64 225 83 663 41 985 -7 61 -13 115 -13 120 2 31 46
-97 68 -200z m4451 84 c35 -128 51 -288 51 -519 0 -267 -25 -475 -76 -631 -9
-25 -18 -56 -20 -69 -8 -40 -56 -130 -76 -143 -10 -6 -19 -18 -19 -26 0 -8 -3
-12 -6 -9 -3 4 -22 -12 -42 -34 -119 -132 -382 -154 -547 -46 -70 45 -175 155
-182 190 -3 15 -10 28 -14 28 -15 0 -36 67 -41 130 0 8 -6 18 -12 22 -6 5 -1
8 12 8 12 0 30 -9 40 -21 46 -56 178 -183 211 -203 107 -67 312 -61 431 12 47
29 128 125 158 186 88 178 132 496 117 856 -6 150 -12 213 -30 350 -6 44 -6
44 9 19 8 -14 24 -59 36 -100z m-9321 -122 c6 -28 15 -261 20 -517 9 -455 13
-514 32 -555 18 -38 26 -172 12 -191 -7 -10 -13 -25 -13 -34 0 -25 -31 -47
-64 -46 -23 1 -33 9 -49 40 -18 33 -20 55 -18 145 1 58 6 124 11 146 5 22 10
137 11 255 1 318 15 782 24 802 11 27 23 12 34 -45z m22350 6 c7 -29 16 -244
21 -528 10 -475 16 -565 38 -587 14 -14 16 -136 3 -171 -14 -37 -39 -57 -71
-57 -22 0 -33 8 -50 36 -21 33 -22 43 -16 142 10 163 16 330 26 772 5 223 12
415 15 427 10 32 21 21 34 -34z m-11176 11 c5 -16 13 -234 17 -484 9 -457 15
-576 30 -595 5 -6 13 -47 19 -92 8 -67 8 -87 -5 -115 -27 -58 -30 -62 -60 -70
-25 -7 -32 -4 -51 19 -13 16 -25 42 -29 58 -5 29 0 124 11 190 3 17 9 264 14
550 6 286 13 533 17 548 8 34 25 30 37 -9z m15646 -16 c8 -40 29 -756 30
-1006 0 -21 4 -31 11 -27 8 5 16 -30 11 -57 0 -5 3 -8 9 -8 6 0 9 -37 7 -92
-3 -103 -19 -142 -62 -150 -59 -12 -98 66 -83 167 13 93 18 242 27 740 4 253
11 466 15 473 14 23 25 11 35 -40z m-7340 -593 c6 -94 13 -192 17 -220 6 -48
6 -49 -10 -28 -22 30 -55 161 -63 248 -5 59 -2 79 17 123 13 29 24 51 26 49 2
-1 8 -79 13 -172z m471 -2035 c0 -5 19 -10 43 -10 88 0 231 -45 330 -103 85
-51 222 -208 271 -311 74 -157 88 -195 127 -359 41 -168 59 -325 60 -502 0
-139 -2 -164 -31 -276 -63 -249 -147 -420 -271 -553 -144 -154 -296 -225 -481
-226 -196 0 -370 82 -534 252 -143 149 -154 165 -194 293 -52 161 -72 312 -71
540 1 376 67 669 204 901 117 200 320 343 490 344 20 0 37 5 37 10 0 6 5 10
10 10 6 0 10 -4 10 -10z m6760 -14 c221 -17 405 -127 539 -324 140 -207 237
-591 241 -954 1 -146 -21 -260 -89 -451 -101 -287 -290 -497 -511 -568 -260
-84 -539 15 -768 273 -28 31 -53 54 -55 51 -3 -2 -8 5 -12 16 -3 12 -10 21
-15 21 -9 0 -51 103 -73 180 -93 333 -88 759 14 1117 100 350 313 589 567 637
40 8 76 17 79 20 4 4 9 2 13 -3 3 -6 35 -12 70 -15z m-22310 -7 c19 -5 49 -9
66 -9 31 0 174 -54 184 -70 3 -4 19 -14 35 -23 29 -15 127 -105 170 -158 95
-114 188 -329 225 -519 36 -184 50 -296 56 -440 6 -150 5 -174 -16 -264 -121
-531 -402 -836 -770 -836 -191 1 -357 78 -521 242 -43 44 -79 84 -79 89 0 5
-7 9 -15 9 -8 0 -15 7 -15 15 0 9 -7 18 -15 22 -21 8 -47 61 -79 160 -123 391
-91 986 73 1345 148 324 437 505 701 437z m4515 -5 c44 -8 98 -23 120 -32 121
-51 243 -150 316 -257 19 -27 37 -52 41 -55 12 -10 79 -164 109 -254 64 -191
97 -389 105 -626 6 -158 4 -183 -15 -260 -53 -207 -132 -400 -213 -518 -48
-70 -168 -182 -240 -225 -182 -108 -405 -115 -604 -18 -102 49 -186 116 -295
236 -25 28 -49 51 -53 52 -36 9 -103 191 -138 380 -29 155 -31 503 -4 683 53
345 147 563 315 731 99 99 190 150 306 173 75 15 125 13 250 -10z m2164 10
c64 -4 127 -17 166 -33 62 -26 156 -74 167 -84 7 -7 28 -24 46 -39 59 -49 189
-220 208 -275 4 -10 18 -42 31 -72 87 -196 143 -495 144 -776 0 -101 -5 -170
-15 -210 -78 -313 -160 -481 -310 -631 -141 -140 -283 -204 -458 -204 -228 0
-433 116 -631 358 -15 19 -27 28 -27 20 -1 -19 -38 66 -66 152 -13 41 -36 140
-50 220 -25 136 -26 159 -21 380 5 244 16 335 61 510 48 189 138 374 234 481
60 67 166 145 232 170 64 25 188 49 210 42 8 -3 44 -7 79 -9z m11191 -4 c166
-20 294 -81 401 -191 212 -219 328 -563 345 -1029 7 -174 6 -176 -26 -305 -69
-280 -158 -457 -300 -595 -88 -87 -176 -141 -275 -173 -94 -30 -282 -31 -365
-3 -139 47 -242 116 -379 255 -119 120 -144 166 -185 333 -46 190 -59 313 -53
523 13 420 93 710 260 930 75 100 151 166 244 211 69 34 191 66 223 59 8 -2
58 -9 110 -15z m2369 -25 c110 -37 190 -86 261 -158 224 -225 349 -624 352
-1112 0 -162 -44 -343 -129 -530 -91 -199 -218 -344 -373 -424 -220 -115 -486
-87 -695 72 -102 77 -254 241 -281 304 -123 278 -140 816 -38 1205 81 308 234
525 444 630 82 40 122 47 255 44 100 -2 134 -8 204 -31z m-24709 13 c0 -5 8
-8 18 -7 27 4 84 -11 124 -34 85 -47 112 -136 122 -402 8 -210 43 -735 57
-853 9 -69 9 -125 0 -215 -6 -67 -18 -216 -27 -330 -17 -238 -32 -293 -97
-364 -88 -95 -227 -81 -341 36 l-39 40 1 821 c0 451 -3 820 -7 820 -5 0 -26
-7 -47 -16 -30 -12 -46 -14 -74 -6 -19 6 -84 20 -145 32 -85 16 -120 28 -152
51 -24 17 -43 27 -43 22 0 -4 -5 -1 -10 7 -6 10 -10 11 -10 3 0 -31 -18 -8
-34 43 -15 47 -16 58 -4 66 11 8 423 211 553 272 51 24 155 34 155 14z m2352
-32 c100 -42 132 -122 142 -361 12 -266 29 -521 57 -862 11 -137 9 -209 -17
-497 -3 -33 -9 -114 -13 -182 -7 -107 -12 -130 -39 -186 -36 -73 -45 -85 -90
-117 -51 -36 -127 -39 -195 -8 -31 14 -62 35 -69 46 -7 12 -16 21 -20 21 -5 0
-18 10 -30 23 l-23 22 -1 818 c-1 449 -3 820 -6 822 -3 3 -24 -2 -48 -10 -32
-11 -52 -13 -74 -6 -17 5 -76 17 -131 26 -70 12 -114 25 -147 45 -25 15 -59
31 -76 34 -23 6 -32 15 -41 45 -6 21 -11 46 -11 55 0 11 74 53 248 139 376
186 347 176 456 161 50 -7 108 -20 128 -28z m4403 22 c28 -6 62 -17 76 -24 39
-20 88 -71 104 -111 17 -40 32 -171 34 -299 1 -76 19 -364 36 -569 2 -33 7
-103 11 -155 3 -52 9 -125 13 -162 4 -37 4 -100 0 -140 -8 -94 -16 -195 -29
-388 -11 -163 -28 -242 -63 -300 -46 -76 -103 -110 -188 -110 -49 0 -145 52
-189 103 l-35 40 0 813 c0 447 -3 816 -7 819 -4 4 -24 1 -45 -8 -35 -13 -46
-13 -133 4 -173 35 -195 41 -232 65 -21 13 -48 24 -62 24 -20 0 -27 8 -40 47
-9 26 -16 53 -16 60 0 13 308 172 520 269 102 46 125 48 245 22z m6681 7 c98
-12 172 -67 205 -154 16 -44 22 -95 30 -262 10 -189 9 -213 -7 -261 -26 -81
-181 -443 -312 -731 -114 -251 -117 -257 -124 -220 -4 21 -5 287 -1 591 4 377
3 552 -4 552 -6 0 -27 -7 -47 -15 -33 -14 -44 -14 -99 -1 -34 8 -98 22 -142
30 -44 9 -92 25 -108 37 -15 11 -40 21 -55 22 -36 3 -45 13 -65 71 -14 39 -14
52 -5 58 17 11 376 188 503 248 104 49 106 49 231 35z m15664 -4 c121 -31 175
-83 199 -193 9 -42 12 -80 31 -428 11 -205 16 -279 32 -455 22 -245 3 -805
-33 -963 -34 -152 -122 -233 -238 -219 -61 7 -113 36 -171 94 l-45 45 0 814
c-1 447 -3 816 -6 819 -3 3 -23 -2 -44 -11 -35 -14 -44 -14 -94 -1 -31 9 -87
20 -126 27 -85 13 -135 28 -135 41 0 5 -21 15 -46 21 -46 13 -62 34 -80 105
-6 23 41 48 551 297 55 26 120 29 205 7z m-10636 -462 c53 -124 80 -212 109
-359 33 -161 36 -191 43 -395 6 -161 5 -175 -21 -275 -38 -151 -70 -241 -126
-355 -165 -339 -458 -506 -771 -441 -79 17 -88 21 -88 46 0 22 43 134 87 225
43 90 39 87 80 60 74 -51 171 -26 224 56 75 117 104 306 113 734 l2 110 98
240 c100 244 192 445 205 445 4 0 24 -41 45 -91z m-16151 -3045 c166 -43 308
-169 382 -338 27 -62 61 -177 69 -231 8 -56 8 -252 1 -300 -4 -22 -11 -112
-15 -200 -22 -408 -60 -611 -148 -779 -72 -137 -208 -233 -345 -243 -86 -7
-171 14 -214 51 l-28 24 25 6 c14 3 68 7 120 9 199 8 312 86 407 278 61 123
84 262 90 534 4 218 3 236 -21 353 -14 68 -25 127 -24 130 1 4 -1 14 -5 22 -3
8 -15 47 -28 85 -77 240 -180 345 -355 361 -115 11 -217 -29 -301 -118 -33
-35 -113 -179 -113 -203 0 -8 -5 -15 -11 -15 -5 0 -8 -4 -5 -9 5 -8 -24 -85
-56 -148 -6 -12 -8 -29 -4 -39 4 -10 2 -20 -4 -24 -5 -3 -12 -19 -15 -36 -9
-57 -18 -89 -29 -103 -7 -9 -12 -108 -15 -292 -1 -154 -7 -277 -11 -274 -12 7
-48 151 -61 245 -6 47 -12 200 -13 340 0 275 6 329 61 490 38 113 91 200 181
297 57 61 160 115 257 136 48 11 172 6 228 -9z m2238 1 c126 -36 233 -115 321
-235 79 -110 128 -270 133 -438 4 -132 -4 -264 -15 -257 -5 3 -9 -55 -9 -127
-4 -453 -89 -782 -237 -918 -30 -27 -85 -64 -122 -82 -61 -30 -74 -33 -162
-33 -81 0 -102 4 -145 25 -82 41 -69 54 65 61 198 11 295 65 384 213 97 162
130 327 130 656 0 168 -3 228 -16 275 -9 33 -19 83 -23 110 -9 66 -83 284
-106 314 -11 13 -19 29 -19 36 0 6 -26 37 -58 68 -78 74 -166 103 -279 93
-178 -15 -286 -131 -388 -421 -16 -44 -32 -85 -37 -91 -5 -6 -5 -19 -2 -28 4
-10 2 -27 -4 -39 -47 -99 -67 -282 -57 -524 8 -207 -5 -217 -49 -38 -52 214
-53 679 -2 875 8 30 25 78 37 105 12 28 22 53 21 58 -1 4 2 7 8 7 6 0 10 7 10
16 0 19 83 138 116 167 13 11 24 26 24 32 0 7 10 17 23 24 12 6 36 20 52 31
42 27 93 50 145 65 63 18 196 18 261 0z m4449 5 c153 -29 306 -155 391 -322
32 -63 67 -175 80 -258 11 -69 9 -252 -3 -305 -5 -22 -11 -98 -14 -170 -12
-323 -38 -508 -95 -679 -55 -164 -135 -263 -265 -327 -111 -55 -270 -49 -348
12 -39 30 -20 39 84 39 238 0 388 113 470 353 49 145 64 258 64 497 0 193 -2
229 -26 351 -28 142 -81 302 -125 379 -33 58 -99 127 -143 150 -72 37 -172 48
-258 29 -97 -20 -205 -116 -259 -229 -40 -83 -63 -139 -63 -154 0 -8 -4 -18
-10 -21 -5 -3 -10 -15 -10 -26 0 -10 -4 -27 -10 -37 -5 -9 -19 -57 -31 -107
-12 -49 -25 -93 -30 -96 -14 -8 -30 -358 -22 -481 3 -60 3 -108 0 -108 -13 0
-35 57 -50 130 -46 216 -52 651 -12 825 70 302 246 510 470 558 39 9 163 7
215 -3z m2251 -4 c120 -28 250 -124 332 -246 91 -134 158 -414 122 -507 -2 -7
1 -13 7 -13 7 0 8 -16 3 -52 -4 -29 -7 -61 -7 -70 0 -10 -3 -20 -7 -23 -5 -2
-9 -53 -10 -112 -3 -229 -30 -467 -71 -628 -24 -93 -87 -230 -132 -288 -41
-51 -147 -120 -217 -141 -99 -29 -223 -14 -285 35 -38 30 -20 39 84 39 200 1
330 78 418 247 53 103 79 190 97 330 21 156 20 476 -1 563 -8 36 -19 85 -24
110 -18 97 -67 249 -101 311 -27 52 -92 128 -130 153 -90 60 -246 71 -347 24
-68 -32 -150 -120 -194 -208 -42 -85 -100 -248 -118 -330 -7 -30 -22 -75 -33
-100 -18 -41 -21 -71 -25 -322 -3 -153 -8 -275 -12 -273 -12 8 -48 152 -62
250 -20 137 -16 580 6 670 9 39 19 80 21 93 14 63 88 221 127 272 44 56 140
150 155 150 3 0 14 7 24 16 10 9 50 26 91 39 85 28 200 32 289 11z m6709 -2
c255 -60 444 -335 456 -667 2 -60 6 -112 8 -116 2 -3 -2 -33 -9 -66 -7 -33
-16 -125 -19 -205 -23 -517 -85 -759 -232 -908 -113 -113 -262 -158 -395 -118
-59 17 -108 50 -96 63 5 4 59 11 120 14 172 10 266 54 350 164 109 144 153
318 164 651 5 183 4 211 -16 315 -60 310 -120 458 -220 552 -99 92 -262 112
-392 47 -69 -35 -119 -84 -161 -157 -16 -29 -34 -56 -39 -59 -5 -3 -9 -12 -9
-21 0 -15 -26 -80 -51 -126 -5 -10 -7 -22 -4 -27 4 -6 1 -10 -4 -10 -6 0 -11
-8 -11 -17 0 -19 -18 -79 -31 -105 -5 -10 -9 -28 -9 -40 0 -13 -7 -43 -16 -68
-20 -56 -35 -325 -27 -482 4 -81 3 -118 -5 -118 -19 0 -54 137 -71 280 -17
137 -15 510 3 610 26 142 49 211 100 308 50 93 117 173 191 229 110 84 273
113 425 77z m4517 -13 c86 -34 149 -79 217 -153 104 -114 167 -259 189 -435
15 -118 14 -270 -1 -300 -7 -12 -14 -88 -17 -170 -11 -297 -35 -462 -91 -640
-57 -180 -137 -281 -274 -347 -59 -28 -74 -31 -160 -31 -83 0 -102 3 -145 26
-81 41 -68 53 65 60 129 7 202 29 273 83 96 73 176 221 211 388 45 217 46 546
2 741 -13 59 -22 107 -19 107 3 0 1 6 -5 13 -5 6 -19 44 -31 83 -44 147 -122
266 -206 310 -39 21 -122 44 -159 44 -74 0 -158 -23 -209 -58 -29 -20 -59 -42
-67 -51 -34 -33 -97 -144 -130 -226 -44 -111 -65 -177 -75 -237 -3 -21 -10
-38 -15 -38 -5 0 -8 -8 -8 -17 1 -10 -7 -54 -16 -98 -14 -63 -18 -131 -18
-318 0 -131 -4 -235 -8 -230 -14 15 -48 139 -59 215 -10 69 -14 139 -26 429
-3 71 1 150 9 206 17 112 69 281 108 346 15 26 28 50 28 52 0 3 16 27 35 53
41 58 112 122 163 148 20 10 39 22 42 25 5 6 79 31 125 43 48 12 221 -2 272
-23z m2180 17 c137 -34 280 -145 354 -273 41 -73 54 -105 85 -220 27 -102 39
-308 22 -385 -5 -25 -14 -124 -18 -220 -21 -410 -74 -653 -177 -807 -76 -115
-217 -193 -348 -193 -66 0 -147 24 -182 55 l-28 23 25 6 c14 2 70 7 125 9 156
8 250 53 332 161 115 152 160 343 166 701 2 160 -5 240 -28 319 -8 27 -13 51
-11 55 13 21 -75 270 -124 352 -52 88 -104 131 -191 159 -154 50 -309 -1 -406
-133 -34 -46 -83 -136 -88 -162 -2 -6 -14 -40 -28 -75 -37 -98 -58 -160 -70
-215 -6 -27 -14 -52 -17 -55 -3 -3 -7 -18 -8 -35 -1 -16 -5 -41 -8 -55 -3 -14
-9 -137 -13 -275 -6 -219 -8 -246 -20 -220 -44 101 -69 353 -64 655 3 159 4
176 17 245 18 99 30 135 91 260 40 82 63 114 125 176 42 42 91 82 108 90 18 8
32 17 32 20 0 6 41 20 110 38 50 13 183 13 237 -1z m4510 -13 c160 -54 286
-176 356 -345 60 -143 69 -192 73 -387 2 -146 1 -181 -10 -177 -10 4 -14 -34
-19 -178 -11 -311 -45 -522 -109 -676 -62 -152 -120 -218 -246 -282 -110 -56
-268 -50 -347 12 -26 20 -26 22 -9 29 10 4 51 8 91 8 296 3 459 178 519 557
24 152 24 464 0 594 -59 317 -162 526 -289 584 -96 44 -220 45 -312 2 -62 -29
-136 -100 -170 -163 -14 -27 -29 -55 -34 -63 -15 -25 -39 -83 -47 -115 -4 -16
-15 -48 -24 -70 -29 -67 -33 -79 -37 -114 -2 -19 -8 -42 -13 -52 -6 -10 -10
-31 -10 -48 0 -16 -4 -31 -10 -33 -15 -5 -30 -206 -30 -408 -1 -175 -2 -183
-16 -150 -73 168 -95 804 -34 966 6 15 13 42 16 60 6 41 65 163 107 224 40 57
113 129 170 169 117 80 293 103 434 56z m-29096 -20 c104 -37 128 -103 109
-302 -6 -65 -15 -174 -21 -243 -5 -69 -11 -136 -14 -150 -2 -14 -9 -52 -15
-85 -6 -33 -14 -76 -16 -95 -3 -19 -9 -39 -14 -45 -4 -5 -9 -118 -10 -250 -1
-132 -5 -357 -9 -500 l-6 -260 -25 0 -25 0 -6 280 c-4 154 -7 381 -9 505 -1
124 -6 245 -10 270 -5 25 -11 74 -14 110 -7 80 -25 181 -36 195 -4 6 -15 33
-24 60 -38 119 -106 168 -254 185 -132 15 -162 30 -162 83 0 23 11 40 47 74
26 23 51 43 55 43 5 0 27 12 49 26 74 46 268 112 335 113 17 1 51 -6 75 -14z
m6699 5 c49 -14 97 -63 110 -111 12 -43 15 -142 6 -157 -3 -5 -10 -90 -15
-190 -6 -105 -17 -198 -25 -223 -8 -23 -12 -55 -9 -71 3 -16 1 -39 -5 -51 -26
-55 -33 -164 -39 -627 -6 -501 -7 -522 -46 -507 -22 8 -27 87 -28 507 -1 212
-5 423 -10 470 -4 47 -10 125 -13 173 -4 49 -11 107 -16 130 -17 72 -56 187
-68 199 -7 7 -12 18 -12 24 0 7 -9 16 -20 19 -11 3 -20 13 -20 21 0 8 -4 15
-10 15 -21 3 -26 5 -51 22 -16 11 -62 22 -119 28 -129 14 -169 33 -170 81 -1
58 171 169 350 226 102 33 153 38 210 22z m13422 -5 c47 -19 95 -76 104 -122
7 -39 -9 -318 -27 -453 -5 -41 -11 -100 -13 -131 -3 -31 -13 -91 -24 -135 -21
-85 -21 -73 -31 -683 -5 -358 -8 -395 -23 -405 -39 -24 -41 -7 -49 536 -4 288
-12 541 -18 562 -5 22 -11 69 -12 105 -3 67 -9 94 -52 215 -27 75 -75 133
-132 161 -20 9 -76 21 -125 26 -110 12 -157 30 -162 61 -9 54 44 108 167 171
101 51 114 56 201 82 94 27 149 30 196 10z m6740 -16 c39 -28 78 -111 78 -167
0 -24 -4 -73 -10 -110 -5 -37 -11 -103 -13 -147 -7 -137 -31 -365 -39 -365 -4
0 -8 -9 -8 -19 0 -11 -4 -21 -9 -23 -12 -4 -19 -177 -27 -663 -3 -225 -10
-414 -14 -418 -4 -5 -16 -7 -26 -5 -18 3 -19 18 -21 213 -3 211 -22 884 -28
940 -1 17 -5 41 -8 55 -3 14 -10 52 -17 85 -6 33 -15 69 -20 80 -5 11 -17 43
-27 70 -37 105 -120 156 -272 169 -174 16 -187 102 -30 197 40 24 76 44 79 45
3 0 19 6 35 14 188 82 308 98 377 49z m-24619 -3484 c64 -22 148 -78 179 -120
16 -22 25 -41 19 -43 -5 -2 -45 15 -89 37 -148 74 -266 76 -408 6 -88 -43
-179 -136 -228 -233 -59 -118 -114 -314 -141 -505 -4 -26 -11 -50 -15 -52 -17
-10 -22 103 -10 220 15 154 49 286 100 392 116 239 377 370 593 298z m2217 4
c56 -13 121 -50 177 -102 40 -37 55 -67 33 -67 -5 0 -42 17 -83 39 -187 98
-379 69 -531 -83 -117 -116 -189 -304 -250 -658 -4 -21 -12 -38 -18 -38 -17 0
-2 279 21 381 56 247 170 414 337 495 103 49 196 59 314 33z m4472 -1 c77 -16
218 -120 218 -159 0 -14 -6 -12 -90 30 -149 74 -275 76 -410 9 -184 -93 -284
-279 -356 -659 -15 -76 -31 -139 -37 -139 -17 0 0 292 22 390 56 246 169 414
334 495 105 52 193 61 319 33z m8943 0 c74 -18 215 -119 215 -154 0 -19 -2
-19 -94 27 -111 55 -196 68 -296 45 -189 -42 -317 -178 -399 -422 -23 -69 -91
-367 -91 -400 0 -3 -4 -2 -10 1 -15 9 -12 174 6 294 41 284 165 488 349 576
106 51 205 61 320 33z m4470 0 c22 -5 63 -23 91 -39 52 -30 141 -116 130 -126
-3 -4 -46 12 -94 35 -113 54 -193 69 -281 53 -201 -37 -338 -178 -421 -432
-24 -72 -90 -363 -90 -395 0 -3 -4 -2 -10 1 -15 9 -12 176 5 285 39 255 123
426 262 529 131 98 259 126 408 89z m4470 0 c55 -13 122 -53 173 -101 37 -36
54 -67 36 -67 -3 0 -43 18 -87 40 -194 96 -377 67 -531 -85 -108 -106 -173
-265 -231 -564 -23 -118 -30 -140 -38 -120 -13 35 0 258 22 364 19 94 67 225
103 284 127 205 341 301 553 249z m-26843 -45 c28 -25 23 -77 -11 -115 l-29
-33 -109 -1 c-59 0 -143 -4 -186 -8 -81 -8 -111 1 -101 29 18 47 264 145 363
145 37 0 60 -5 73 -17z m6708 -3 c24 -24 25 -53 4 -90 -31 -51 -66 -64 -160
-56 -45 3 -117 1 -160 -5 -123 -17 -158 4 -91 55 72 55 243 114 335 115 39 1
57 -4 72 -19z m8938 0 c26 -25 28 -52 6 -90 -27 -45 -63 -60 -148 -60 -56 0
-78 4 -82 14 -3 7 8 43 24 79 33 71 36 73 128 76 38 1 56 -4 72 -19z m4472 0
c25 -25 25 -54 0 -95 -29 -46 -65 -59 -156 -52 -42 4 -113 2 -157 -4 -45 -6
-91 -8 -104 -4 -104 26 184 172 345 174 39 1 57 -4 72 -19z m4470 0 c36 -36
19 -97 -35 -130 -28 -17 -49 -20 -156 -19 -68 1 -141 -2 -161 -6 -47 -9 -88 1
-88 20 0 50 244 153 368 154 39 1 57 -4 72 -19z m4468 0 c37 -35 22 -96 -32
-129 -26 -16 -58 -19 -208 -23 -97 -3 -182 -2 -188 2 -31 19 42 79 140 116
155 57 251 69 288 34z m-24223 -1558 c-48 -219 -177 -363 -351 -391 -67 -10
-150 1 -173 24 -18 18 -16 18 97 39 109 20 180 53 247 117 69 65 118 139 158
236 37 91 45 81 22 -25z m4466 -16 c-50 -209 -173 -344 -344 -375 -65 -12
-152 0 -176 24 -18 17 -19 17 99 39 46 9 111 29 145 45 105 50 202 168 266
325 31 77 36 50 10 -58z m8939 -8 c-54 -207 -174 -336 -343 -367 -64 -12 -152
0 -176 23 -15 16 -2 21 123 44 173 33 305 157 388 365 31 78 36 42 8 -65z
m4472 4 c-29 -114 -76 -204 -137 -261 -112 -106 -267 -145 -369 -94 -34 18
-23 29 39 38 142 21 228 59 304 135 55 55 117 153 153 243 31 77 36 43 10 -61z
m4468 -4 c-30 -117 -73 -199 -135 -257 -111 -105 -267 -145 -368 -94 -37 19
-27 30 36 38 72 9 152 32 208 61 94 47 197 179 251 319 31 82 36 42 8 -67z
m-24589 -13 c-12 -42 -35 -103 -52 -137 -85 -168 -289 -263 -442 -206 -46 18
-25 32 73 50 187 35 291 118 382 306 59 121 74 116 39 -13z m-2632 -1805 c67
-11 128 -38 151 -65 12 -14 9 -15 -31 -8 -24 4 -89 8 -144 8 -95 0 -104 -2
-179 -38 -59 -28 -97 -55 -151 -110 -78 -78 -124 -157 -185 -319 -19 -49 -37
-88 -42 -88 -10 0 0 77 24 170 65 262 246 433 483 459 6 0 39 -4 74 -9z m4521
-11 c45 -11 103 -47 96 -58 -4 -5 -24 -5 -48 1 -24 5 -84 8 -134 6 -82 -3
-100 -8 -170 -43 -152 -74 -248 -198 -335 -430 l-34 -90 -3 43 c-7 97 60 281
141 387 122 161 306 231 487 184z m4470 0 c42 -11 100 -45 100 -59 0 -6 -13
-7 -32 -2 -18 4 -80 7 -138 7 -101 0 -108 -2 -184 -38 -59 -28 -97 -55 -151
-110 -78 -78 -124 -157 -186 -322 l-34 -90 -3 43 c-2 24 6 78 16 121 53 206
165 353 326 427 93 42 184 50 286 23z m6660 10 c65 -10 155 -53 145 -68 -2 -5
-24 -5 -47 0 -140 27 -272 -1 -386 -81 -114 -80 -190 -194 -257 -383 -49 -139
-62 -96 -20 68 36 143 85 236 170 320 94 95 187 139 320 154 6 0 39 -4 75 -10z
m4533 -15 c44 -16 92 -50 79 -58 -4 -2 -26 -1 -48 4 -67 16 -177 11 -246 -10
-81 -25 -195 -104 -249 -172 -49 -62 -106 -174 -144 -280 -25 -71 -45 -99 -45
-64 0 40 32 172 57 238 106 272 366 422 596 342z m2217 5 c42 -10 100 -45 100
-59 0 -6 -13 -7 -32 -2 -18 4 -81 7 -139 7 -102 0 -107 -1 -185 -39 -152 -75
-248 -199 -335 -431 -32 -84 -34 -88 -37 -53 -2 20 6 76 18 125 78 329 338
522 610 452z m2250 -5 c48 -16 99 -49 89 -59 -4 -3 -26 -1 -50 4 -72 17 -181
13 -251 -9 -81 -25 -195 -104 -249 -172 -48 -62 -99 -159 -140 -270 -42 -115
-51 -126 -44 -51 16 166 87 325 190 428 135 136 295 181 455 129z m4473 0 c41
-14 90 -48 81 -56 -2 -3 -24 -2 -47 3 -74 14 -182 10 -245 -10 -72 -22 -189
-97 -234 -150 -52 -61 -105 -157 -149 -271 -50 -128 -64 -145 -54 -70 30 249
156 448 339 534 96 45 215 53 309 20z m-22395 -37 c22 -17 14 -64 -17 -90 -25
-20 -43 -25 -129 -30 -54 -3 -129 -12 -166 -18 -70 -13 -95 -6 -83 25 12 31
201 109 305 125 48 8 68 5 90 -12z m20120 -5 c19 -25 14 -51 -16 -81 -25 -25
-35 -28 -127 -34 -55 -3 -133 -11 -173 -18 -203 -34 -23 100 194 144 75 15
102 13 122 -11z m-24590 6 c22 -22 14 -65 -17 -91 -25 -21 -43 -25 -132 -31
-57 -3 -132 -12 -167 -18 -104 -19 -114 22 -16 71 127 63 301 100 332 69z
m15646 -4 c19 -19 20 -25 4 -59 -16 -36 -57 -55 -120 -55 -29 0 -98 -7 -152
-15 -95 -14 -136 -13 -136 4 0 15 46 50 95 72 138 61 277 85 309 53z m-7014
-55 l25 -20 -25 -16 c-94 -62 -193 -210 -254 -382 -40 -111 -48 -118 -41 -36
7 83 54 228 98 305 35 62 136 170 157 170 8 0 26 -10 40 -21z m-6070 -1639
c-31 -78 -77 -136 -143 -180 -94 -63 -199 -86 -276 -59 -38 14 -40 27 -3 35
215 47 286 89 389 230 55 75 69 64 33 -26z m4475 11 c-42 -113 -117 -189 -233
-237 -62 -26 -139 -31 -191 -13 -38 14 -40 27 -3 35 217 48 285 88 390 232 52
70 67 64 37 -17z m2240 17 c-37 -114 -110 -197 -215 -247 -45 -21 -70 -26
-137 -26 -52 0 -87 5 -94 12 -18 18 -9 23 82 44 145 34 225 87 316 207 30 40
57 71 60 68 3 -3 -2 -29 -12 -58z m8950 30 c-14 -66 -64 -155 -115 -202 -77
-72 -147 -101 -247 -101 -52 0 -87 5 -94 12 -18 18 -9 23 82 44 146 34 222 84
314 204 32 41 60 75 62 75 3 0 2 -15 -2 -32z m2215 -59 c-26 -70 -76 -137
-127 -172 -64 -44 -152 -76 -209 -77 -83 0 -149 32 -91 44 107 24 169 42 211
63 60 30 137 102 191 177 47 65 58 50 25 -35z m2255 59 c-14 -66 -64 -155
-115 -202 -77 -72 -147 -101 -247 -101 -54 0 -86 4 -95 13 -18 18 -1 27 75 42
141 28 229 84 321 204 33 42 61 76 63 76 3 0 2 -15 -2 -32z m-24589 -8 c-11
-57 -59 -144 -103 -187 -59 -57 -156 -103 -230 -110 -91 -8 -177 27 -105 43
85 19 178 47 211 63 52 27 129 99 176 165 45 62 60 70 51 26z m13394 -51 c-28
-69 -79 -139 -129 -173 -94 -66 -212 -92 -290 -65 -38 14 -40 27 -3 35 214 47
281 86 391 229 52 68 64 58 31 -26z m2254 54 c-4 -16 -19 -56 -35 -90 -67
-143 -254 -241 -389 -206 -60 16 -43 35 47 54 144 31 229 85 314 200 55 74 73
86 63 42z m13411 0 c-26 -110 -111 -215 -214 -266 -58 -28 -75 -32 -148 -32
-52 0 -87 5 -94 12 -18 18 -9 23 82 44 144 34 223 85 311 199 56 75 74 87 63
43z m-29426 -1753 c68 -12 128 -38 152 -66 13 -16 12 -17 -16 -10 -68 15 -194
18 -246 6 -148 -35 -284 -150 -361 -305 -25 -50 -55 -119 -67 -155 -35 -100
-43 -105 -37 -25 18 268 220 517 446 554 30 5 57 9 60 10 3 0 34 -4 69 -9z
m4521 -11 c43 -11 100 -45 100 -60 0 -7 -7 -8 -17 -4 -10 3 -57 9 -104 12
-155 10 -269 -34 -384 -151 -77 -78 -121 -153 -181 -307 -20 -52 -38 -96 -41
-99 -15 -14 9 147 32 216 98 295 343 457 595 393z m2251 -5 c43 -14 96 -51 86
-60 -2 -3 -24 0 -48 5 -72 17 -181 13 -251 -9 -81 -25 -195 -104 -249 -172
-49 -62 -106 -174 -144 -280 -15 -43 -32 -78 -36 -78 -12 0 -11 16 5 102 32
162 86 270 185 368 131 130 292 174 452 124z m2219 5 c43 -11 100 -45 100 -60
0 -7 -7 -8 -17 -4 -38 14 -190 18 -244 5 -192 -45 -333 -198 -429 -463 -18
-48 -34 -87 -37 -87 -13 0 9 143 32 216 96 293 343 457 595 393z m4523 -21
c42 -24 66 -58 31 -44 -11 4 -58 10 -105 13 -154 10 -266 -34 -385 -152 -77
-76 -123 -155 -185 -320 l-34 -90 -3 43 c-2 23 6 80 18 125 79 306 299 485
558 455 35 -4 82 -18 105 -30z m2187 20 c49 -14 103 -49 93 -59 -4 -4 -26 -4
-48 1 -62 15 -176 12 -236 -6 -182 -53 -315 -204 -404 -456 -26 -72 -45 -99
-45 -63 0 35 33 173 56 234 100 267 353 417 584 349z m4480 -4 c46 -15 99 -49
90 -57 -3 -3 -25 -1 -50 3 -142 28 -273 1 -388 -80 -114 -80 -190 -194 -257
-383 -44 -123 -57 -112 -31 25 70 363 353 582 636 492z m4470 0 c48 -15 99
-49 89 -59 -4 -3 -26 -1 -50 4 -229 53 -458 -69 -578 -307 -18 -35 -46 -100
-62 -145 -49 -134 -63 -125 -33 21 74 363 352 576 634 486z m2220 5 c43 -11
100 -45 100 -60 0 -7 -7 -8 -17 -4 -10 3 -57 9 -104 12 -155 10 -266 -34 -384
-152 -80 -79 -132 -170 -187 -325 -32 -92 -33 -94 -36 -54 -4 49 20 157 50
234 37 93 83 162 151 228 124 118 272 160 427 121z m-24612 -41 c19 -16 14
-54 -12 -84 -22 -26 -31 -28 -167 -42 -209 -21 -214 -21 -214 3 0 25 69 64
176 100 128 43 183 49 217 23z m8930 6 c32 -22 29 -66 -7 -97 -25 -21 -43 -25
-132 -31 -57 -3 -132 -12 -167 -18 -66 -12 -90 -4 -79 26 12 30 186 103 298
125 63 13 62 13 87 -5z m6695 7 c33 -13 42 -43 23 -79 -20 -38 -52 -49 -166
-57 -52 -3 -123 -11 -158 -17 -47 -9 -65 -9 -74 0 -30 30 89 96 247 137 107
28 98 27 128 16z m4494 -13 c20 -16 15 -54 -10 -83 -21 -25 -32 -28 -157 -40
-74 -8 -156 -17 -181 -20 -102 -16 -61 46 64 96 150 61 248 77 284 47z m6701
0 c20 -17 14 -63 -13 -88 -22 -21 -43 -26 -168 -38 -196 -20 -211 -20 -215 0
-6 30 151 104 283 133 60 13 89 11 113 -7z m-28728 -1696 c-11 -32 -36 -78
-54 -103 -80 -109 -256 -176 -365 -138 -38 14 -40 27 -3 35 87 19 179 47 214
65 54 28 119 89 176 167 54 73 66 63 32 -26z m4470 -2 c-28 -70 -79 -140 -129
-174 -94 -66 -212 -92 -290 -65 -38 14 -40 27 -3 35 87 19 179 47 214 65 54
28 137 107 185 176 29 43 39 51 41 36 2 -11 -7 -44 -18 -73z m2245 28 c-37
-114 -105 -192 -214 -245 -47 -24 -69 -28 -138 -28 -52 0 -87 5 -94 12 -18 18
-9 23 82 44 146 34 222 84 314 204 32 41 60 73 63 71 2 -3 -4 -29 -13 -58z
m2231 -15 c-49 -143 -179 -247 -325 -260 -57 -5 -131 10 -131 27 0 10 4 11
110 35 41 10 97 29 124 42 61 31 142 107 193 180 43 62 55 52 29 -24z m6714
26 c-42 -156 -183 -276 -339 -286 -106 -8 -162 26 -78 47 145 36 174 46 229
83 39 26 85 71 126 124 36 45 67 81 69 79 3 -2 -1 -24 -7 -47z m4475 19 c-24
-113 -116 -227 -221 -275 -67 -30 -169 -42 -214 -23 -41 17 -38 27 13 40 145
36 174 46 229 83 39 26 85 71 127 124 35 46 67 83 69 83 2 0 1 -15 -3 -32z
m4470 0 c-14 -66 -64 -155 -115 -202 -77 -72 -147 -101 -247 -101 -52 0 -87 5
-94 12 -18 18 -11 22 80 43 44 11 98 27 118 35 64 27 138 90 197 169 31 42 59
76 62 76 3 0 3 -15 -1 -32z m2215 -59 c-55 -144 -198 -249 -339 -249 -81 0
-145 32 -88 44 107 24 169 42 211 63 61 31 143 107 193 180 29 43 39 51 41 36
2 -11 -6 -44 -18 -74z m-13404 14 c-49 -142 -181 -249 -322 -261 -88 -7 -179
28 -111 42 218 48 284 86 395 230 50 65 63 61 38 -11z"/>
<path d="M21721 17349 c-105 -21 -175 -98 -221 -246 -41 -132 -46 -386 -14
-633 8 -63 19 -164 24 -225 10 -132 18 -182 36 -215 8 -14 23 -50 34 -80 53
-146 116 -211 208 -218 72 -5 113 20 159 97 70 116 96 316 97 741 2 582 -44
742 -222 779 -29 6 -54 11 -55 10 -1 -1 -22 -5 -46 -10z"/>
<path d="M28405 17343 c-98 -29 -151 -95 -201 -248 -23 -69 -27 -103 -32 -241
-4 -157 9 -385 29 -473 5 -24 12 -83 15 -130 8 -145 12 -171 32 -214 11 -23
34 -77 52 -120 36 -86 93 -158 140 -177 44 -18 122 -8 158 21 71 57 123 214
141 435 21 240 14 654 -15 889 -14 119 -63 209 -134 244 -52 27 -126 32 -185
14z"/>
<path d="M6012 17328 c-89 -43 -148 -150 -178 -321 -13 -75 -15 -131 -10 -302
4 -115 11 -235 16 -265 5 -30 14 -113 20 -184 10 -127 24 -192 54 -258 8 -18
29 -64 46 -103 49 -111 112 -165 190 -165 107 0 175 90 214 285 55 274 47 964
-13 1172 -16 55 -68 120 -114 142 -59 29 -165 28 -225 -1z"/>
<path d="M10545 17350 c-84 -21 -130 -57 -173 -133 -68 -121 -87 -243 -79
-500 7 -192 10 -230 28 -342 5 -33 11 -103 14 -155 5 -89 14 -137 35 -185 5
-11 21 -49 35 -85 60 -151 127 -220 215 -220 150 0 226 182 246 585 14 294 7
524 -22 740 -26 187 -61 246 -172 288 -45 18 -78 20 -127 7z"/>
<path d="M12764 17346 c-81 -25 -106 -47 -167 -147 -24 -40 -55 -155 -67 -244
-14 -115 -4 -390 20 -535 6 -36 13 -101 15 -145 9 -151 15 -180 60 -290 82
-198 123 -245 219 -253 119 -10 187 82 231 310 31 164 44 587 25 825 -15 176
-19 217 -21 223 -1 3 -1 9 0 13 2 12 -26 93 -45 130 -50 98 -163 146 -270 113z"/>
<path d="M23928 17345 c-90 -29 -158 -121 -204 -275 -16 -56 -19 -96 -18 -300
0 -159 6 -272 17 -350 9 -63 18 -155 22 -205 5 -88 20 -165 34 -175 4 -3 19
-39 34 -80 38 -103 82 -172 131 -204 36 -24 49 -27 100 -23 56 3 62 6 102 51
81 89 109 208 128 536 18 320 5 663 -30 812 -4 18 -8 35 -9 38 -2 16 -31 79
-47 102 -47 68 -168 102 -260 73z"/>
<path d="M26215 17355 c-5 -2 -30 -9 -53 -15 -93 -24 -173 -139 -208 -300 -27
-128 -22 -432 11 -660 8 -52 16 -134 18 -181 4 -85 13 -116 83 -284 52 -125
117 -185 204 -185 172 0 242 229 249 815 1 153 -17 482 -32 565 -20 109 -80
199 -150 224 -46 16 -106 27 -122 21z"/>
</g>
</svg>
